<svg xmlns="http://www.w3.org/2000/svg" viewBox="0 0 841.9 595.3"><title>Logo-Details</title><rect x="551.1" y="231.2" width="127.6" height="127.56" style="fill:#e6e6e6"/><text transform="translate(558 374.5)" style="font-size:10px;fill:#1d1d1b;font-family:MyriadPro-Regular, Myriad Pro">Neg<tspan x="17.2" y="0" style="letter-spacing:-0.00400390625em">a</tspan><tspan x="22" y="0">ti</tspan><tspan x="27.6" y="0" style="letter-spacing:-0.00400390625em">v</tspan><tspan x="32.4" y="0" style="letter-spacing:-0.0109375em">-</tspan><tspan x="35.3" y="0" style="letter-spacing:-0.0330078125em">V</tspan><tspan x="40.6" y="0">a</tspan><tspan x="45.4" y="0" style="letter-spacing:0.00400390625em">r</tspan><tspan x="48.7" y="0">ia</tspan><tspan x="55.9" y="0" style="letter-spacing:-0.00400390625em">n</tspan><tspan x="61.4" y="0" style="letter-spacing:-0.0060546875em">t</tspan><tspan x="64.6" y="0">e des </tspan><tspan x="88.5" y="0" style="letter-spacing:-0.01396484375em">L</tspan><tspan x="93.1" y="0">ogos</tspan></text><circle cx="615.7" cy="297.1" r="56.7" style="fill:#b82327"/><path d="M575.6,257a56.6,56.6,0,0,0,0,80.2L655.8,257A56.8,56.8,0,0,0,575.6,257Z" style="fill:#25383c"/><path d="M642.2,309.2a8.8,8.8,0,0,0-.9-3.8V305c.1-.1.2-.2.2-.9a6.3,6.3,0,0,0-.4-2.5,3.7,3.7,0,0,0-2-1.3,18,18,0,0,1-2.7-.7.3.3,0,0,1-.1-.2v-2.1a.9.9,0,0,0,.6-.9,2.4,2.4,0,0,0,0-.9h0c0-.3.2-3-2.5-3.1a2.6,2.6,0,0,0-2.8,2.8,3.4,3.4,0,0,0,.1,1.4,7.9,7.9,0,0,0,.8,1.1v1.8a.2.2,0,0,1-.2.2h-.7c-1.4.2-3.9.6-4.6,1.8s-.9,4.1-1.1,4.6.3,1.6.4,2.3.4,3.3.4,3.3.5.6.4.9,0,2.4.4,2.8,1.2,2.9,1.6,2.8,0-1.8,0-2v-.2l.2-.2v-1.3a3.1,3.1,0,0,0-.1-1.3c-.2-.4-.9-.5-.9-1.1a20.9,20.9,0,0,0,.4-3.5,9,9,0,0,0-.5-2.2l1.2-1.5s.4,2.1.4,2.7.7,1,.7,2.6a19.7,19.7,0,0,1-.3,2.4v3.1h0l-.5,2v.2c.2.5.6,2.1,1,3.1s1.9,2.3,1.9,2.5a12.3,12.3,0,0,0-.5,2.2,22.7,22.7,0,0,0,.7,2.8,8,8,0,0,1,.4,2.4c0,.6.6,2.1.8,3.1s-.5,1.7-.4,1.9a3.2,3.2,0,0,1-.2,1.6c-.1.3-.9,2.4-.6,3.1s1.1.6,1.5.6-.3,2.8,1.3,2.9,1.6-2.2,1.5-2.9a8.5,8.5,0,0,1,.3-3.9,25.7,25.7,0,0,0,1.1-2.7c.4-.9.1-3.7.1-4.2a7.4,7.4,0,0,1,.5-1.9,14.9,14.9,0,0,0,.6-2.8c.1-.7.9-3.7.9-4.6a13.7,13.7,0,0,0-.2-4.5,25.2,25.2,0,0,1-.8-5.8h0c.2,1.1,2,2.1,2.6,1.4S642.1,309.9,642.2,309.2ZM636.1,330a14,14,0,0,1-.6,2.8h-.1a20.8,20.8,0,0,1,0-2.5c.1-.5.3-2,.4-2.7s0-.1.1,0A9.7,9.7,0,0,1,636.1,330Z" style="fill:#25383c"/><path d="M641.2,309.6a8.2,8.2,0,0,0-.5-1.4,7.1,7.1,0,0,1-1.5-2.1c-.2-.7-.3-2.6-.5-3.2a8.3,8.3,0,0,0-1.6-2.2c-.2,0-.1.3-.1.4s.5,1.5.5,1.9-.4-.6-.5-.5.4,1.3.4,1.4.1,1.3.1,1.4.7,1.2.8,1.5.6,2.7.7,2.9l.5,1.3Z" style="fill:#25383c"/><path d="M632.3,294.6c0-.1.1-.2.2-.1l1.5.4a4.5,4.5,0,0,0,2-.4c.5-.4.4,2.6.3,2.8s-1.1,1.8-1.8,1.8a3.6,3.6,0,0,1-2-1.4,15.7,15.7,0,0,1-.3-2.4A3.5,3.5,0,0,1,632.3,294.6Z" style="fill:#25383c"/><text transform="translate(657.9 282.4)" style="writing-mode:tb;text-orientation:upright;glyph-orientation-vertical:0deg;font-size:9.779032707214355px;fill:#25383c;font-family:MyriadPro-Regular, Myriad Pro">OCR</text><text transform="matrix(0.19, -0.98, 0.98, 0.19, 570.25, 291.44)" style="font-size:9.77905559539795px;fill:#b82327;font-family:Consolas-Bold, Consolas;font-weight:700">S</text><text transform="matrix(0.3, -0.95, 0.95, 0.3, 571.23, 286.32)" style="font-size:9.77905559539795px;fill:#b82327;font-family:Consolas-Bold, Consolas;font-weight:700">o</text><text transform="matrix(0.41, -0.91, 0.91, 0.41, 572.77, 281.38)" style="font-size:9.77905559539795px;fill:#b82327;font-family:Consolas-Bold, Consolas;font-weight:700">u</text><text transform="matrix(0.51, -0.86, 0.86, 0.51, 574.88, 276.61)" style="font-size:9.77905559539795px;fill:#b82327;font-family:Consolas-Bold, Consolas;font-weight:700">r</text><text transform="matrix(0.6, -0.8, 0.8, 0.6, 577.51, 272.14)" style="font-size:9.77905559539795px;fill:#b82327;font-family:Consolas-Bold, Consolas;font-weight:700">c</text><text transform="matrix(0.69, -0.72, 0.72, 0.69, 580.63, 267.99)" style="font-size:9.77905559539795px;fill:#b82327;font-family:Consolas-Bold, Consolas;font-weight:700">e</text><text transform="matrix(0.77, -0.64, 0.64, 0.77, 584.22, 264.22)" style="font-size:9.77905559539795px;fill:#b82327;font-family:Consolas-Bold, Consolas;font-weight:700"> </text><text transform="matrix(0.84, -0.55, 0.55, 0.84, 588.21, 260.89)" style="font-size:9.77905559539795px;fill:#b82327;font-family:Consolas-Bold, Consolas;font-weight:700">C</text><text transform="matrix(0.89, -0.45, 0.45, 0.89, 592.57, 258.03)" style="font-size:9.77905559539795px;fill:#b82327;font-family:Consolas-Bold, Consolas;font-weight:700">o</text><text transform="matrix(0.94, -0.34, 0.34, 0.94, 597.22, 255.7)" style="font-size:9.77905559539795px;fill:#b82327;font-family:Consolas-Bold, Consolas;font-weight:700">d</text><text transform="matrix(0.97, -0.23, 0.23, 0.97, 602.11, 253.9)" style="font-size:9.77905559539795px;fill:#b82327;font-family:Consolas-Bold, Consolas;font-weight:700">e</text><text transform="matrix(0.71, -0.7, 0.7, 0.71, 581.75, 297.25)" style="font-size:10.130026817321777px;fill:#b82327;font-family:Consolas">01011111<tspan x="0" y="12.2">11001100</tspan></text><text transform="translate(587.9 108.2)" style="font-size:16px;fill:#b82327;font-family:Consolas">Schriftart: Consolas</text><text transform="translate(574.8 81.5) scale(0.92 1)" style="font-size:36.495819091796875px;fill:#25383c;font-family:Consolas-Bold, Consolas;font-weight:700">Source Code</text><rect x="242.4" y="199.1" width="87.3" height="35.33" style="fill:#25383c"/><text transform="translate(357.1 199.3)" style="font-size:10px;fill:#1d1d1b;font-family:MyriadPro-Regular, Myriad Pro"><tspan style="letter-spacing:-0.04501953125em">F</tspan><tspan x="4.4" y="0">a</tspan><tspan x="9.2" y="0" style="letter-spacing:0.00400390625em">r</tspan><tspan x="12.5" y="0">be</tspan><tspan x="0" y="12">C=82 M=57</tspan><tspan x="48.4" y="12" style="letter-spacing:-0.04599609375em"> </tspan><tspan x="50.1" y="12">Y=54 K=59</tspan><tspan x="0" y="24">H</tspan><tspan x="6.5" y="24" style="letter-spacing:-0.00302734375em">e</tspan><tspan x="11.5" y="24">xa : #25383C;</tspan><tspan x="0" y="36" style="letter-spacing:-0.0080078125em">r</tspan><tspan x="3.2" y="36">gba(37, 56, 60, 1);</tspan></text><rect x="242.4" y="251" width="87.3" height="35.33" style="fill:#b82327"/><text transform="translate(357.1 251.2)" style="font-size:10px;fill:#b82327;font-family:MyriadPro-Regular, Myriad Pro"><tspan style="letter-spacing:0.00400390625em">R</tspan><tspan x="5.4" y="0">ot</tspan><tspan x="0" y="12">C=7 M=100</tspan><tspan x="48.4" y="12" style="letter-spacing:-0.04599609375em"> </tspan><tspan x="50.1" y="12">Y=100 </tspan><tspan x="0" y="24">K=20H</tspan><tspan x="28.2" y="24" style="letter-spacing:-0.00302734375em">e</tspan><tspan x="33.1" y="24">xa : #B82327;</tspan><tspan x="0" y="36" style="letter-spacing:-0.0080078125em">r</tspan><tspan x="3.2" y="36">gb(184, 35, 39);</tspan></text><rect x="242.4" y="303" width="87.3" height="35.33" style="fill:gray"/><text transform="translate(357.1 309.5)" style="font-size:10px;fill:gray;font-family:MyriadPro-Regular, Myriad Pro">G<tspan x="6.5" y="0" style="letter-spacing:-0.00498046875em">r</tspan><tspan x="9.7" y="0">au</tspan><tspan x="0" y="12">K=50</tspan><tspan x="0" y="24">h</tspan><tspan x="5.5" y="24" style="letter-spacing:-0.00302734375em">e</tspan><tspan x="10.5" y="24">xa: #808080;</tspan><tspan x="0" y="36" style="letter-spacing:-0.0080078125em">r</tspan><tspan x="3.2" y="36">gba(128, 128, 128, 1);</tspan></text><rect x="242.4" y="357.5" width="87.3" height="35.33" style="fill:#1d1d1b"/><text transform="translate(357.1 361.9)" style="font-size:10px;fill:#1d1d1b;font-family:MyriadPro-Regular, Myriad Pro"><tspan style="letter-spacing:0.00595703125em">S</tspan><tspan x="5" y="0">c</tspan><tspan x="9.5" y="0" style="letter-spacing:-0.01298828125em">h</tspan><tspan x="14.9" y="0" style="letter-spacing:-0.00390625em">w</tspan><tspan x="22.2" y="0">a</tspan><tspan x="27" y="0" style="letter-spacing:0.008984375em">r</tspan><tspan x="30.4" y="0">z</tspan><tspan x="0" y="12">C = 0 / M = 0 /</tspan><tspan x="57.7" y="12" style="letter-spacing:-0.04599609375em"> </tspan><tspan x="59.4" y="12">Y = 0 / K = 100</tspan><tspan x="0" y="24">H</tspan><tspan x="6.5" y="24" style="letter-spacing:-0.00302734375em">e</tspan><tspan x="11.5" y="24">xa: #1D1D1B;</tspan><tspan x="0" y="36" style="letter-spacing:-0.0080078125em">r</tspan><tspan x="3.2" y="36">gba(29, 29, 27, 1);</tspan></text><rect x="612.7" y="460.9" width="7.1" height="12.89" transform="translate(1232.4 934.7) rotate(180)" style="fill:gray"/><rect x="612.6" y="460.9" width="7.1" height="12.89" transform="translate(1232.4 934.7) rotate(180)" style="fill:gray"/><rect x="612.6" y="460.9" width="7.2" height="12.86" transform="translate(1083.5 -148.9) rotate(90)" style="fill:gray"/><rect x="612.9" y="460.9" width="6.6" height="12.86" transform="translate(1083.5 -148.9) rotate(90)" style="fill:gray"/><polyline points="562.7 531.1 552.6 531.1 552.6 521" style="fill:none;stroke:gray;stroke-miterlimit:10;stroke-width:0.7234817248853544px"/><line x1="552.6" y1="499.5" x2="552.6" y2="424.4" style="fill:none;stroke:gray;stroke-miterlimit:10;stroke-width:0.7234817248853544px;stroke-dasharray:21.46031379699707,21.46031379699707"/><polyline points="552.6 413.7 552.6 403.6 562.7 403.6" style="fill:none;stroke:gray;stroke-miterlimit:10;stroke-width:0.7234817248853544px"/><line x1="584.1" y1="403.6" x2="659" y2="403.6" style="fill:none;stroke:gray;stroke-miterlimit:10;stroke-width:0.7234817248853544px;stroke-dasharray:21.404096603393555,21.404096603393555"/><polyline points="669.7 403.6 679.8 403.6 679.8 413.7" style="fill:none;stroke:gray;stroke-miterlimit:10;stroke-width:0.7234817248853544px"/><line x1="679.8" y1="435.2" x2="679.8" y2="510.3" style="fill:none;stroke:gray;stroke-miterlimit:10;stroke-width:0.7234817248853544px;stroke-dasharray:21.46031379699707,21.46031379699707"/><polyline points="679.8 521 679.8 531.1 669.7 531.1" style="fill:none;stroke:gray;stroke-miterlimit:10;stroke-width:0.7234817248853544px"/><line x1="648.3" y1="531.1" x2="573.4" y2="531.1" style="fill:none;stroke:gray;stroke-miterlimit:10;stroke-width:0.7234817248853544px;stroke-dasharray:21.404096603393555,21.404096603393555"/><circle cx="616.2" cy="467.3" r="56.7" style="fill:#25383c"/><path d="M576.1,427.3a56.7,56.7,0,0,0,0,80.1l80.2-80.1A56.6,56.6,0,0,0,576.1,427.3Z" style="fill:#b82327"/><path d="M642.7,479.5a7.2,7.2,0,0,0-.8-3.8c-.1-.2-.1-.3,0-.4a5.8,5.8,0,0,0,.1-1,3.8,3.8,0,0,0-.4-2.4,3.3,3.3,0,0,0-1.9-1.3l-2.7-.7c-.1-.1-.2-.1-.2-.2v-2.1a1.4,1.4,0,0,0,.7-.9c0-.6,0-.9-.1-1h0c.1-.3.2-3-2.4-3a2.7,2.7,0,0,0-2.9,2.7c.1.3,0,1.1.1,1.5l.8,1.1v1.8l-.2.2h-.7c-1.4.2-3.8.7-4.6,1.9s-.8,4-1,4.5.2,1.7.3,2.4l.5,3.3a2.9,2.9,0,0,1,.4.8c-.1.2-.1,2.5.4,2.9s1.1,2.8,1.6,2.7-.1-1.8-.1-2,0-.2.1-.2v-1.4a3.4,3.4,0,0,0-.1-1.4c-.2-.4-1-.5-.9-1.1s.4-2.8.4-3.5-.5-2.2-.5-2.2l1.2-1.5a14.5,14.5,0,0,1,.3,2.7c0,.6.7,1.1.7,2.7a9,9,0,0,1-.2,2.3c-.1.9,0,2.8,0,3.1h0l-.5,2v.3c.1.4.6,2,1,3s1.8,2.3,1.8,2.5a17.1,17.1,0,0,0-.4,2.3,12,12,0,0,0,.7,2.7,12.9,12.9,0,0,1,.3,2.4c0,.7.7,2.1.8,3.1a3.4,3.4,0,0,1-.4,2,2.7,2.7,0,0,1-.1,1.5c-.2.4-1,2.5-.7,3.1s1.1.6,1.6.6-.4,2.9,1.2,3,1.6-2.3,1.5-3a9.5,9.5,0,0,1,.3-3.8c.4-.7,1-2.4,1.2-2.8s0-3.6,0-4.2a8.5,8.5,0,0,1,.6-1.9c.1-.3.5-2,.6-2.7s.8-3.8.9-4.6.1-3.6-.3-4.6a24.6,24.6,0,0,1-.8-5.8h0c.3,1.1,2,2.1,2.6,1.5S642.6,480.2,642.7,479.5Zm-6,20.7c-.1.7-.5,2.2-.7,2.9h0a10.7,10.7,0,0,1-.1-2.5c.1-.5.3-2.1.4-2.8h.1A19.7,19.7,0,0,1,636.7,500.2Z" style="fill:#b82327"/><path d="M641.8,479.9a4.8,4.8,0,0,0-.6-1.4,16.4,16.4,0,0,1-1.5-2.2,30.6,30.6,0,0,0-.5-3.2,10.5,10.5,0,0,0-1.5-2.1c-.3-.1-.2.2-.2.4a14.3,14.3,0,0,1,.5,1.8c.1.4-.4-.6-.4-.4s.3,1.2.3,1.3.2,1.4.2,1.5.6,1.1.7,1.4.7,2.7.7,3l.5,1.2Z" style="fill:#b82327"/><path d="M632.8,464.8c0-.1.1-.1.2-.1a9.8,9.8,0,0,0,1.6.5,3.9,3.9,0,0,0,2-.5c.4-.3.4,2.7.2,2.9s-1.1,1.7-1.7,1.7A4.2,4.2,0,0,1,633,468c0-.4-.3-2-.3-2.5A2,2,0,0,0,632.8,464.8Z" style="fill:#b82327"/><text transform="matrix(0.19, -0.98, 0.98, 0.19, 570.8, 461.64)" style="font-size:9.77905559539795px;fill:#25383c;font-family:Consolas-Bold, Consolas;font-weight:700">S</text><text transform="matrix(0.3, -0.95, 0.95, 0.3, 571.78, 456.55)" style="font-size:9.77905559539795px;fill:#25383c;font-family:Consolas-Bold, Consolas;font-weight:700">o</text><text transform="matrix(0.41, -0.91, 0.91, 0.41, 573.33, 451.58)" style="font-size:9.77905559539795px;fill:#25383c;font-family:Consolas-Bold, Consolas;font-weight:700">u</text><text transform="matrix(0.51, -0.86, 0.86, 0.51, 575.44, 446.82)" style="font-size:9.77905559539795px;fill:#25383c;font-family:Consolas-Bold, Consolas;font-weight:700">r</text><text transform="matrix(0.6, -0.8, 0.8, 0.6, 578.07, 442.34)" style="font-size:9.77905559539795px;fill:#25383c;font-family:Consolas-Bold, Consolas;font-weight:700">c</text><text transform="matrix(0.69, -0.72, 0.72, 0.69, 581.19, 438.19)" style="font-size:9.77905559539795px;fill:#25383c;font-family:Consolas-Bold, Consolas;font-weight:700">e</text><text transform="matrix(0.77, -0.64, 0.64, 0.77, 584.77, 434.42)" style="font-size:9.77905559539795px;fill:#25383c;font-family:Consolas-Bold, Consolas;font-weight:700"> </text><text transform="matrix(0.84, -0.55, 0.55, 0.84, 588.77, 431.09)" style="font-size:9.77905559539795px;fill:#25383c;font-family:Consolas-Bold, Consolas;font-weight:700">C</text><text transform="matrix(0.89, -0.45, 0.45, 0.89, 593.13, 428.24)" style="font-size:9.77905559539795px;fill:#25383c;font-family:Consolas-Bold, Consolas;font-weight:700">o</text><text transform="matrix(0.94, -0.34, 0.34, 0.94, 597.77, 425.91)" style="font-size:9.77905559539795px;fill:#25383c;font-family:Consolas-Bold, Consolas;font-weight:700">d</text><text transform="matrix(0.97, -0.23, 0.23, 0.97, 602.66, 424.11)" style="font-size:9.77905559539795px;fill:#25383c;font-family:Consolas-Bold, Consolas;font-weight:700">e</text><text transform="translate(658.4 452.6)" style="writing-mode:tb;text-orientation:upright;glyph-orientation-vertical:0deg;font-size:9.779032707214355px;fill:#b82327;font-family:MyriadPro-Regular, Myriad Pro">OCR</text><text transform="matrix(0.71, -0.7, 0.7, 0.71, 582.29, 467.48)" style="font-size:10.130026817321777px;fill:#25383c;font-family:Consolas">01011111<tspan x="0" y="12.2">11001100</tspan></text><path d="M554.1,549.5l-1.7-6.8h.9l.8,3.4c.2.9.4,1.7.5,2.4h0l.6-2.4.9-3.4h.9l.8,3.4c.2.8.4,1.6.5,2.3h0c.2-.7.3-1.4.6-2.3l.8-3.4h.9l-1.9,6.8h-.9l-.8-3.6a22.5,22.5,0,0,1-.5-2.2h0a22.5,22.5,0,0,1-.5,2.2l-1,3.6Z" style="fill:#1d1d1b"/><path d="M561.6,547.2a1.6,1.6,0,0,0,1.7,1.7,2.3,2.3,0,0,0,1.3-.3l.2.7a5.8,5.8,0,0,1-1.7.3,2.3,2.3,0,0,1-2.3-2.5,2.3,2.3,0,0,1,2.2-2.6,2,2,0,0,1,2,2.3v.4Zm2.6-.6c0-.6-.2-1.5-1.2-1.5s-1.3.9-1.4,1.5Z" style="fill:#1d1d1b"/><path d="M567.1,543.3c0,.3-.2.5-.6.5a.5.5,0,0,1-.5-.5.5.5,0,0,1,.6-.6C566.9,542.7,567.1,542.9,567.1,543.3Zm-1,6.2v-4.9h.9v4.9Z" style="fill:#1d1d1b"/><path d="M568.5,549.5v-4.6c0-1.1.2-1.7.7-2.1a1.8,1.8,0,0,1,1.4-.6,1.7,1.7,0,0,1,1.8,1.7,2,2,0,0,1-.2.9.8.8,0,0,0-.7.8c0,.3.2.5.5.8a2.3,2.3,0,0,1,.8,1.6,1.6,1.6,0,0,1-1.8,1.6l-1.1-.2.2-.7.8.2a.9.9,0,0,0,1-.9,1.4,1.4,0,0,0-.5-1,2,2,0,0,1-.8-1.3,1.3,1.3,0,0,1,.9-1.2c0-.2.1-.3.1-.5a1,1,0,0,0-1.1-1.1c-.7,0-1.2.6-1.2,2v4.6Z" style="fill:#1d1d1b"/><path d="M573.9,546.1v-1.5h.8v1h0a1.6,1.6,0,0,1,1.4-1.1h.2v.9H576c-.6,0-1,.5-1.1,1.2s-.1.2-.1.4v2.6h-.9Z" style="fill:#1d1d1b"/><path d="M579.8,549.5v-.7h-.1a1.6,1.6,0,0,1-1.4.8,1.4,1.4,0,0,1-1.5-1.4c0-1.2,1-1.8,2.9-1.8h0a1,1,0,0,0-1.1-1.1,2.8,2.8,0,0,0-1.3.3l-.2-.6a3.8,3.8,0,0,1,1.6-.4,1.8,1.8,0,0,1,1.9,2v3Zm-.1-2.5c-.9,0-2,.1-2,1.1a.7.7,0,0,0,.8.8,1.4,1.4,0,0,0,1.2-.8V547Z" style="fill:#1d1d1b"/><path d="M586,548.1a6.1,6.1,0,0,0,.1,1.4h-.8v-.8h0a1.7,1.7,0,0,1-1.6.9c-.7,0-1.6-.5-1.6-2.2v-2.8h.8v2.7c0,.9.3,1.5,1.1,1.5a1.4,1.4,0,0,0,1.2-.8c0-.1.1-.3.1-.4v-3h.8Z" style="fill:#1d1d1b"/><path d="M587.5,545.9v-1.3h.7v.8h0a1.6,1.6,0,0,1,1.5-.9,1.4,1.4,0,0,1,1.4,1h0l.5-.7a2,2,0,0,1,1.1-.3c.7,0,1.6.4,1.6,2.1v2.9h-.9v-2.8c0-.9-.3-1.5-1-1.5a1.1,1.1,0,0,0-1,.8.7.7,0,0,0-.1.5v3h-.9v-2.9c0-.8-.3-1.4-1-1.4s-.9.5-1.1.9v3.4h-.9Z" style="fill:#1d1d1b"/><path d="M595.6,545.4a.6.6,0,0,1,.6-.6.6.6,0,1,1,0,1.2A.6.6,0,0,1,595.6,545.4Zm0,3.5a.6.6,0,0,1,.6-.6.6.6,0,0,1,.6.6c0,.4-.2.7-.6.7A.7.7,0,0,1,595.6,548.9Z" style="fill:#1d1d1b"/><path d="M558.7,558.5c-.1-.9-.1-2.1-.1-2.9h0c-.3.8-.5,1.6-.9,2.5l-1.2,3.3h-.6l-1.1-3.2c-.3-.9-.6-1.8-.8-2.6h0c0,.8-.1,2-.2,3v2.9h-.9l.5-6.8h1.1l1.2,3.3c.2.8.5,1.5.6,2.2h.1a13.6,13.6,0,0,1,.7-2.2l1.2-3.3h1.1l.4,6.8h-.8Z" style="fill:#1d1d1b"/><path d="M562.1,555.3a.5.5,0,0,1-.5.5.6.6,0,0,1-.6-.5.6.6,0,0,1,.6-.6C561.9,554.7,562.1,554.9,562.1,555.3Zm-1,6.2v-4.9h.9v4.9Z" style="fill:#1d1d1b"/><path d="M563.5,557.9a5.3,5.3,0,0,0-.1-1.3h.8v.8h0a1.8,1.8,0,0,1,1.6-.9c.7,0,1.7.4,1.7,2.1v2.9h-.9v-2.8c0-.8-.3-1.5-1.1-1.5a1.3,1.3,0,0,0-1.2.9v3.4h-.9Z" style="fill:#1d1d1b"/><path d="M573.2,554.4v5.8a5.7,5.7,0,0,0,.1,1.3h-.8v-.9h0a1.8,1.8,0,0,1-1.6,1,2.2,2.2,0,0,1-2.1-2.5,2.3,2.3,0,0,1,2.2-2.6,1.7,1.7,0,0,1,1.4.7h0v-2.8Zm-.9,4.2v-.4a1.3,1.3,0,0,0-1.3-1c-.9,0-1.4.8-1.4,1.9s.5,1.8,1.4,1.8a1.4,1.4,0,0,0,1.3-1.1v-1.2Z" style="fill:#1d1d1b"/><path d="M575.2,559.2a1.5,1.5,0,0,0,1.6,1.7,2.6,2.6,0,0,0,1.4-.3v.7a4.5,4.5,0,0,1-1.6.3,2.3,2.3,0,0,1-2.4-2.5,2.4,2.4,0,0,1,2.3-2.6,2,2,0,0,1,2,2.3v.4Zm2.5-.6a1.2,1.2,0,0,0-1.2-1.5,1.4,1.4,0,0,0-1.3,1.5Z" style="fill:#1d1d1b"/><path d="M579.6,560.6a2.9,2.9,0,0,0,1.1.3c.7,0,1-.3,1-.7s-.3-.7-.9-.9-1.3-.8-1.3-1.4.6-1.4,1.7-1.4a1.8,1.8,0,0,1,1.1.3l-.2.6-1-.2c-.5,0-.8.3-.8.6s.3.6.9.8,1.3.8,1.3,1.5-.6,1.5-1.8,1.5a3.3,3.3,0,0,1-1.4-.4Z" style="fill:#1d1d1b"/><path d="M584.7,555.2v1.4H586v.7h-1.3v2.6c0,.6.2.9.7.9h.5v.6a1.5,1.5,0,0,1-.8.2,1.3,1.3,0,0,1-.9-.4,1.7,1.7,0,0,1-.4-1.3v-2.6h-.7v-.7h.7v-1.1Z" style="fill:#1d1d1b"/><path d="M589.6,561.5v-.7h-.1a1.7,1.7,0,0,1-1.4.8,1.4,1.4,0,0,1-1.5-1.4c0-1.2,1-1.8,2.9-1.8h0a1,1,0,0,0-1.1-1.1,2.8,2.8,0,0,0-1.3.3l-.2-.6a3.8,3.8,0,0,1,1.6-.4,1.8,1.8,0,0,1,1.9,2v3Zm-.1-2.5c-1,0-2,.1-2,1.1a.7.7,0,0,0,.8.8,1.4,1.4,0,0,0,1.2-.8V559Z" style="fill:#1d1d1b"/><path d="M591.7,561.5a5.7,5.7,0,0,0,.1-1.3v-5.8h.8v3h.1a1.8,1.8,0,0,1,1.6-.9,2.2,2.2,0,0,1,2.1,2.5,2.3,2.3,0,0,1-2.2,2.6,1.7,1.7,0,0,1-1.6-.9h-.1v.8Zm.9-2c0,.1.1.2.1.3a1.5,1.5,0,0,0,1.3,1.1c.9,0,1.5-.8,1.5-1.9s-.5-1.8-1.5-1.8a1.4,1.4,0,0,0-1.3,1.1c0,.1-.1.2-.1.3Z" style="fill:#1d1d1b"/><path d="M597.3,560.6a4.2,4.2,0,0,0,1.2.3c.6,0,.9-.3.9-.7s-.2-.7-.9-.9-1.2-.8-1.2-1.4a1.4,1.4,0,0,1,1.6-1.4,1.9,1.9,0,0,1,1.2.3l-.2.6-1-.2c-.5,0-.8.3-.8.6s.3.6.9.8,1.3.8,1.3,1.5-.7,1.5-1.8,1.5a3.3,3.3,0,0,1-1.4-.4Z" style="fill:#1d1d1b"/><path d="M602.5,555.2v1.4h1.2v.7h-1.2v2.6q0,.9.6.9h.6v.6a1.5,1.5,0,0,1-.8.2,1.3,1.3,0,0,1-.9-.4,1.7,1.7,0,0,1-.4-1.3v-2.6h-.7v-.7h.7v-1.1Z" style="fill:#1d1d1b"/><path d="M607.4,561.5v-.7h0a1.9,1.9,0,0,1-1.5.8,1.4,1.4,0,0,1-1.4-1.4c0-1.2,1-1.8,2.9-1.8h0a1,1,0,0,0-1.1-1.1,2.5,2.5,0,0,0-1.3.3l-.2-.6a3.8,3.8,0,0,1,1.6-.4c1.5,0,1.8,1,1.8,2v1.8c0,.4.1.8.1,1.2Zm-.1-2.5c-1,0-2.1.1-2.1,1.1a.8.8,0,0,0,.9.8,1.1,1.1,0,0,0,1.1-.8.4.4,0,0,0,.1-.3Z" style="fill:#1d1d1b"/><path d="M609.6,557.9c0-.5-.1-.9-.1-1.3h.8v.8h.1a1.8,1.8,0,0,1,1.6-.9c.6,0,1.7.4,1.7,2.1v2.9h-.9v-2.8c0-.8-.3-1.5-1.1-1.5a1.2,1.2,0,0,0-1.2.9c0,.1-.1.3-.1.4v3h-.8Z" style="fill:#1d1d1b"/><path d="M619.3,554.4v7.1h-.8v-.9h0a1.8,1.8,0,0,1-1.7,1c-1.1,0-2-1-2-2.5a2.2,2.2,0,0,1,2.1-2.6,1.8,1.8,0,0,1,1.5.7h0v-2.8Zm-.9,4.2v-.4a1.4,1.4,0,0,0-1.3-1c-.9,0-1.5.8-1.5,1.9a1.6,1.6,0,0,0,1.5,1.8,1.4,1.4,0,0,0,1.3-1.1v-1.2Z" style="fill:#1d1d1b"/><path d="M627,554.4v5.8a5.7,5.7,0,0,0,.1,1.3h-.8v-.9h-.1a1.6,1.6,0,0,1-1.6,1,2.2,2.2,0,0,1-2.1-2.5,2.3,2.3,0,0,1,2.2-2.6,1.7,1.7,0,0,1,1.4.7h.1v-2.8Zm-.8,4.2a.6.6,0,0,0-.1-.4,1.3,1.3,0,0,0-1.2-1c-1,0-1.5.8-1.5,1.9s.5,1.8,1.4,1.8a1.3,1.3,0,0,0,1.3-1.1c.1-.1.1-.2.1-.4Z" style="fill:#1d1d1b"/><path d="M629,559.2a1.6,1.6,0,0,0,1.7,1.7,2.3,2.3,0,0,0,1.3-.3v.7a4.5,4.5,0,0,1-1.6.3,2.2,2.2,0,0,1-2.3-2.5,2.3,2.3,0,0,1,2.2-2.6,2,2,0,0,1,2,2.3v.4Zm2.6-.6c0-.6-.3-1.5-1.2-1.5s-1.3.9-1.4,1.5Z" style="fill:#1d1d1b"/><path d="M633.4,560.6a3.5,3.5,0,0,0,1.2.3c.6,0,.9-.3.9-.7s-.3-.7-.9-.9-1.3-.8-1.3-1.4.6-1.4,1.7-1.4a2.1,2.1,0,0,1,1.2.3l-.2.6-1-.2c-.6,0-.8.3-.8.6s.2.6.9.8,1.2.8,1.2,1.5-.6,1.5-1.8,1.5a2.5,2.5,0,0,1-1.3-.4Z" style="fill:#1d1d1b"/><path d="M639.6,554.7h.9v6h2.9v.8h-3.8Z" style="fill:#1d1d1b"/><path d="M648.5,559a2.4,2.4,0,0,1-2.4,2.6,2.3,2.3,0,0,1-2.3-2.5,2.4,2.4,0,0,1,2.4-2.6A2.3,2.3,0,0,1,648.5,559Zm-3.8,0c0,1.1.6,1.9,1.5,1.9a1.7,1.7,0,0,0,1.5-1.9,1.7,1.7,0,0,0-1.5-1.8A1.6,1.6,0,0,0,644.7,559Z" style="fill:#1d1d1b"/><path d="M653.8,556.6v4.2a2.8,2.8,0,0,1-.7,2.2,2.7,2.7,0,0,1-1.8.5,2.9,2.9,0,0,1-1.6-.4l.3-.6a2.6,2.6,0,0,0,1.4.3c.9,0,1.5-.4,1.5-1.6v-.6h0a1.6,1.6,0,0,1-1.5.8,2.2,2.2,0,0,1-2.1-2.3,2.3,2.3,0,0,1,2.2-2.6,1.6,1.6,0,0,1,1.5.8h0v-.7Zm-.9,1.9v-.4a1.3,1.3,0,0,0-1.3-.9c-.8,0-1.4.7-1.4,1.8s.5,1.8,1.4,1.8a1.4,1.4,0,0,0,1.3-.9v-1.4Z" style="fill:#1d1d1b"/><path d="M659.6,559a2.4,2.4,0,0,1-2.4,2.6,2.3,2.3,0,0,1-2.3-2.5,2.4,2.4,0,0,1,2.4-2.6A2.3,2.3,0,0,1,659.6,559Zm-3.8,0c0,1.1.6,1.9,1.5,1.9s1.4-.8,1.4-1.9-.4-1.8-1.4-1.8S655.8,558.1,655.8,559Z" style="fill:#1d1d1b"/><path d="M660.6,560.6a3.5,3.5,0,0,0,1.2.3c.6,0,.9-.3.9-.7s-.2-.7-.9-.9-1.3-.8-1.3-1.4a1.5,1.5,0,0,1,1.7-1.4,2.1,2.1,0,0,1,1.2.3l-.2.6-1-.2c-.5,0-.8.3-.8.6s.3.6.9.8,1.3.8,1.3,1.5-.7,1.5-1.8,1.5a2.6,2.6,0,0,1-1.4-.4Z" style="fill:#1d1d1b"/><path d="M666.3,560.9l2.2-2.8.6-.8h-2.6v-.7h3.7v.6L668,560l-.6.7h2.8v.7h-3.9Z" style="fill:#1d1d1b"/><path d="M675.2,560.1v1.4h-.8v-.8h-.1a1.7,1.7,0,0,1-1.6.9c-.7,0-1.6-.5-1.6-2.2v-2.8h.9v2.7c0,.9.2,1.5,1,1.5a1.4,1.4,0,0,0,1.2-.8c0-.1.1-.3.1-.4v-3h.9Z" style="fill:#1d1d1b"/><path d="M676.6,557.9v-1.3h.7v.8h0a1.6,1.6,0,0,1,1.5-.9,1.4,1.4,0,0,1,1.4,1h0l.6-.7a1.7,1.7,0,0,1,1-.3c.7,0,1.6.4,1.6,2.1v2.9h-.8v-2.8c0-.9-.4-1.5-1.1-1.5a1.1,1.1,0,0,0-1,.8.7.7,0,0,0-.1.5v3h-.9v-2.9c0-.8-.3-1.4-1-1.4s-.9.5-1.1.9v3.4h-.9Z" style="fill:#1d1d1b"/><path d="M687.1,557.9a5.3,5.3,0,0,0-.1-1.3h.8v.8h0a1.8,1.8,0,0,1,1.6-.9c.7,0,1.7.4,1.7,2.1v2.9h-.9v-2.8c0-.8-.3-1.5-1.1-1.5a1.3,1.3,0,0,0-1.2.9v3.4h-.9Z" style="fill:#1d1d1b"/><path d="M695.3,561.5v-.7h0a1.9,1.9,0,0,1-1.5.8,1.4,1.4,0,0,1-1.5-1.4c0-1.2,1.1-1.8,3-1.8h0a1,1,0,0,0-1.1-1.1,2.5,2.5,0,0,0-1.3.3l-.2-.6a3.8,3.8,0,0,1,1.6-.4c1.5,0,1.8,1,1.8,2v1.8a4.9,4.9,0,0,0,.1,1.2Zm-2.4-6.3a.5.5,0,0,1,1,0,.5.5,0,1,1-1,0Zm2.3,3.8c-1,0-2.1.1-2.1,1.1a.8.8,0,0,0,.9.8,1.1,1.1,0,0,0,1.1-.8.4.4,0,0,0,.1-.3Zm-.5-3.8a.6.6,0,0,1,.5-.5.5.5,0,0,1,.5.5.5.5,0,1,1-1,0Z" style="fill:#1d1d1b"/><path d="M700.9,561.3a3.2,3.2,0,0,1-1.4.3,2.3,2.3,0,0,1-2.4-2.5,2.5,2.5,0,0,1,2.6-2.6,1.9,1.9,0,0,1,1.2.3l-.2.6-1-.2A1.7,1.7,0,0,0,698,559a1.7,1.7,0,0,0,1.7,1.9,2,2,0,0,0,1-.3Z" style="fill:#1d1d1b"/><path d="M701.9,554.4h.9v3h0a1.3,1.3,0,0,1,.7-.6,1.2,1.2,0,0,1,.9-.3c.6,0,1.6.4,1.6,2.1v2.9h-.8v-2.8c0-.8-.3-1.5-1.2-1.5a1.2,1.2,0,0,0-1.1.9.6.6,0,0,0-.1.4v3h-.9Z" style="fill:#1d1d1b"/><path d="M707.4,560.6a2.9,2.9,0,0,0,1.1.3c.7,0,1-.3,1-.7s-.3-.7-.9-.9-1.3-.8-1.3-1.4a1.4,1.4,0,0,1,1.6-1.4,1.9,1.9,0,0,1,1.2.3l-.2.6-1-.2c-.5,0-.8.3-.8.6s.3.6.9.8,1.3.8,1.3,1.5-.7,1.5-1.8,1.5a3.3,3.3,0,0,1-1.4-.4Z" style="fill:#1d1d1b"/><path d="M712.5,555.2v1.4h1.3v.7h-1.3v2.6c0,.6.2.9.7.9h.5v.6a1.5,1.5,0,0,1-.8.2,1.3,1.3,0,0,1-.9-.4,1.7,1.7,0,0,1-.4-1.3v-2.6h-.7v-.7h.7v-1.1Z" style="fill:#1d1d1b"/><path d="M715.2,559.2a1.5,1.5,0,0,0,1.6,1.7,2.6,2.6,0,0,0,1.4-.3v.7a4.5,4.5,0,0,1-1.6.3,2.3,2.3,0,0,1-2.4-2.5,2.4,2.4,0,0,1,2.3-2.6,2,2,0,0,1,2,2.3v.4Zm2.6-.6a1.4,1.4,0,0,0-1.3-1.5c-.9,0-1.2.9-1.3,1.5Z" style="fill:#1d1d1b"/><path d="M719.7,557.9v-1.3h.7v.8h0a1.8,1.8,0,0,1,1.6-.9c.7,0,1.7.4,1.7,2.1v2.9h-.9v-2.8c0-.8-.3-1.5-1.1-1.5a1.3,1.3,0,0,0-1.2.9v3.4h-.9Z" style="fill:#1d1d1b"/><path d="M733.1,558c0,2.3-1.4,3.6-3.1,3.6s-3-1.4-3-3.5,1.3-3.5,3.1-3.5S733.1,556,733.1,558Zm-5.2.1c0,1.5.8,2.8,2.2,2.8s2.1-1.3,2.1-2.8-.7-2.8-2.1-2.8S727.9,556.6,727.9,558.1Z" style="fill:#1d1d1b"/><path d="M734.2,561.5c0-.4.1-.9.1-1.3v-5.8h.8v3h0a2.1,2.1,0,0,1,1.7-.9c1.2,0,2,1,2,2.5a2.3,2.3,0,0,1-2.1,2.6,2,2,0,0,1-1.7-.9h0v.8Zm.9-2a.4.4,0,0,0,.1.3,1.3,1.3,0,0,0,1.3,1.1c.9,0,1.4-.8,1.4-1.9s-.5-1.8-1.4-1.8a1.4,1.4,0,0,0-1.3,1.1c0,.1-.1.2-.1.3Z" style="fill:#1d1d1b"/><path d="M738.8,562.8a1.2,1.2,0,0,0,.9-.3c.3-.3.4-.7.4-1.8v-4.1h.8V561a3,3,0,0,1-.5,2,2.3,2.3,0,0,1-1.5.5Zm2.2-7.5a.5.5,0,0,1-.5.5.6.6,0,0,1-.6-.5.6.6,0,0,1,.6-.6C740.8,554.7,741,554.9,741,555.3Z" style="fill:#1d1d1b"/><path d="M742.9,559.2a1.5,1.5,0,0,0,1.6,1.7,2.9,2.9,0,0,0,1.4-.3v.7a4.5,4.5,0,0,1-1.6.3,2.3,2.3,0,0,1-2.4-2.5,2.4,2.4,0,0,1,2.3-2.6,2,2,0,0,1,2,2.3v.4Zm2.5-.6c0-.6-.2-1.5-1.2-1.5a1.4,1.4,0,0,0-1.3,1.5Z" style="fill:#1d1d1b"/><path d="M748.3,558.8h0l.4-.5,1.4-1.7h1.1l-1.9,2,2.1,2.9h-1l-1.7-2.4-.4.5v1.9h-.9v-7.1h.9Z" style="fill:#1d1d1b"/><path d="M753.1,555.2v1.4h1.3v.7h-1.3v2.6c0,.6.2.9.7.9h.5v.6l-.7.2a1.3,1.3,0,0,1-1-.4,2.3,2.3,0,0,1-.3-1.3v-2.6h-.8v-.7h.8v-1.1Z" style="fill:#1d1d1b"/><path d="M761.9,559a2.4,2.4,0,1,1-2.4-2.5A2.3,2.3,0,0,1,761.9,559Zm-3.9,0c0,1.1.6,1.9,1.5,1.9A1.7,1.7,0,0,0,761,559a1.5,1.5,0,1,0-3,0Z" style="fill:#1d1d1b"/><path d="M767.2,554.4v7.1h-.8v-.9h0a1.8,1.8,0,0,1-1.7,1,2.2,2.2,0,0,1-2.1-2.5,2.3,2.3,0,0,1,2.2-2.6,2.1,2.1,0,0,1,1.5.7h0v-2.8Zm-.9,4.2a.6.6,0,0,0-.1-.4,1.3,1.3,0,0,0-1.2-1c-.9,0-1.5.8-1.5,1.9a1.6,1.6,0,0,0,1.5,1.8,1.3,1.3,0,0,0,1.2-1.1c.1-.1.1-.2.1-.4Z" style="fill:#1d1d1b"/><path d="M769.1,559.2a1.6,1.6,0,0,0,1.7,1.7,2.3,2.3,0,0,0,1.3-.3l.2.7a5,5,0,0,1-1.6.3,2.3,2.3,0,0,1-2.4-2.5,2.3,2.3,0,0,1,2.2-2.6,2,2,0,0,1,2,2.3v.4Zm2.6-.6c0-.6-.2-1.5-1.2-1.5s-1.3.9-1.4,1.5Z" style="fill:#1d1d1b"/><path d="M773.6,558.1v-1.5h.8v1h0a1.6,1.6,0,0,1,1.4-1.1h.2v.9h-.3c-.6,0-1,.5-1.2,1.2v3h-.9Z" style="fill:#1d1d1b"/><path d="M779.1,554.8h1.6a2.7,2.7,0,0,1,2,.5,1.9,1.9,0,0,1,.5,1.3,1.7,1.7,0,0,1-1.3,1.7h0a1.5,1.5,0,0,1,1,1.4c.2.9.4,1.6.5,1.9h-.9a14.7,14.7,0,0,1-.4-1.7,1.4,1.4,0,0,0-1.4-1.3h-.8v3h-.8Zm.8,3.1h.9a1.3,1.3,0,0,0,1.5-1.3c0-.9-.6-1.3-1.5-1.3h-.9Z" style="fill:#1d1d1b"/><path d="M787.2,561.5v-.7h0a1.9,1.9,0,0,1-1.5.8,1.4,1.4,0,0,1-1.5-1.4c0-1.2,1.1-1.8,3-1.8h0a1,1,0,0,0-1.1-1.1,2.5,2.5,0,0,0-1.3.3l-.2-.6a3.8,3.8,0,0,1,1.6-.4c1.5,0,1.8,1,1.8,2v1.8a4.9,4.9,0,0,0,.1,1.2Zm-.1-2.5c-1,0-2.1.1-2.1,1.1a.8.8,0,0,0,.9.8,1.1,1.1,0,0,0,1.1-.8.4.4,0,0,0,.1-.3Z" style="fill:#1d1d1b"/><path d="M789.3,557.9v-1.3h.8v.8h.1a1.8,1.8,0,0,1,1.6-.9c.6,0,1.7.4,1.7,2.1v2.9h-.9v-2.8c0-.8-.3-1.5-1.1-1.5a1.2,1.2,0,0,0-1.2.9.6.6,0,0,0-.1.4v3h-.9Z" style="fill:#1d1d1b"/><path d="M799.1,554.4v7.1h-.8v-.9h0a1.8,1.8,0,0,1-1.7,1,2.2,2.2,0,0,1-2.1-2.5,2.3,2.3,0,0,1,2.2-2.6,1.8,1.8,0,0,1,1.5.7h0v-2.8Zm-.9,4.2v-.4a1.5,1.5,0,0,0-1.3-1c-.9,0-1.5.8-1.5,1.9a1.6,1.6,0,0,0,1.5,1.8,1.4,1.4,0,0,0,1.3-1.1v-1.2Z" style="fill:#1d1d1b"/><path d="M800.2,560.9a.6.6,0,0,1,.6-.6.6.6,0,0,1,.6.6c0,.4-.2.7-.6.7A.7.7,0,0,1,800.2,560.9Z" style="fill:#1d1d1b"/><path d="M161.5,377.5a5.6,5.6,0,0,1,5.7,5.6V499.4a5.6,5.6,0,0,1-5.7,5.6H45.3a5.7,5.7,0,0,1-5.7-5.6V383.1a5.7,5.7,0,0,1,5.7-5.6H161.5m0-3H45.3a8.7,8.7,0,0,0-8.7,8.6V499.4a8.6,8.6,0,0,0,8.7,8.6H161.5a8.6,8.6,0,0,0,8.7-8.6V383.1a8.7,8.7,0,0,0-8.7-8.6Z" style="fill:#25383c"/><circle cx="103.4" cy="441.3" r="56.7" style="fill:#fff"/><path d="M63.3,401.2a56.7,56.7,0,0,0,0,80.1l80.2-80.1A56.6,56.6,0,0,0,63.3,401.2Z" style="fill:#1d1d1b"/><path d="M129.9,453.4a7.4,7.4,0,0,0-.8-3.8c-.1-.2-.1-.3,0-.4s.1-.2.2-.9a6.3,6.3,0,0,0-.4-2.5,3.9,3.9,0,0,0-2-1.3l-2.7-.7a.2.2,0,0,1-.2-.2v-2.1a1.4,1.4,0,0,0,.7-.9v-.9h0c0-.3.1-3-2.5-3a2.5,2.5,0,0,0-2.8,2.7,3.9,3.9,0,0,0,.1,1.5,3.8,3.8,0,0,0,.8,1.1v1.8c0,.1,0,.2-.1.2h-.8c-1.4.2-3.8.7-4.5,1.9s-.9,4-1.1,4.5.2,1.7.3,2.4l.5,3.3a2.9,2.9,0,0,1,.4.8c-.1.3-.1,2.5.4,2.9s1.1,2.8,1.6,2.8-.1-1.8-.1-2.1v-.2c.1,0,.1-.1.1-.2v-1.2a3.6,3.6,0,0,0-.1-1.4c-.2-.4-1-.5-.9-1.1s.4-2.8.4-3.5-.5-2.1-.5-2.1l1.2-1.6a15.8,15.8,0,0,1,.3,2.8c0,.6.7,1,.7,2.6a9,9,0,0,1-.2,2.3c-.1.9,0,2.8,0,3.1h0l-.5,2v.3c.1.4.6,2,1,3s1.8,2.3,1.8,2.5a20.7,20.7,0,0,0-.4,2.3,12,12,0,0,0,.7,2.7,8.1,8.1,0,0,1,.3,2.4c.1.7.7,2.1.8,3.2a3.3,3.3,0,0,1-.4,1.9,2.6,2.6,0,0,1-.1,1.5c-.2.4-1,2.5-.6,3.1s1.1.6,1.5.6-.4,2.9,1.3,3,1.6-2.3,1.4-2.9a12.1,12.1,0,0,1,.3-3.9,29.3,29.3,0,0,0,1.2-2.8c.4-.9,0-3.6,0-4.2a8.5,8.5,0,0,1,.6-1.9c.1-.3.5-2,.6-2.7s.8-3.8.9-4.6.1-3.6-.3-4.6a24.6,24.6,0,0,1-.8-5.8h0c.3,1.1,2,2.2,2.6,1.5S129.8,454.1,129.9,453.4Zm-6,20.8c-.1.6-.5,2.2-.6,2.8h-.1a10.7,10.7,0,0,1-.1-2.5c.1-.5.3-2.1.4-2.8h.1A19,19,0,0,1,123.9,474.2Z" style="fill:#1d1d1b"/><path d="M129,453.8a4.8,4.8,0,0,0-.6-1.4,8.4,8.4,0,0,1-1.4-2.2c-.3-.7-.3-2.6-.6-3.2a7.6,7.6,0,0,0-1.5-2.1c-.2-.1-.1.2-.2.4l.6,1.8c0,.4-.5-.6-.5-.4s.3,1.2.3,1.3.2,1.4.2,1.5.6,1.2.7,1.4.7,2.8.8,3l.4,1.2Z" style="fill:#1d1d1b"/><path d="M120,438.7h.2a4.9,4.9,0,0,0,1.6.5,3.7,3.7,0,0,0,2-.5c.4-.3.4,2.7.2,2.9s-1,1.8-1.7,1.8a3.6,3.6,0,0,1-2-1.4,18.7,18.7,0,0,1-.4-2.5A2,2,0,0,0,120,438.7Z" style="fill:#1d1d1b"/><text transform="matrix(0.19, -0.98, 0.98, 0.19, 58.01, 435.56)" style="font-size:9.77905559539795px;fill:#fff;font-family:Consolas-Bold, Consolas;font-weight:700">S</text><text transform="matrix(0.3, -0.95, 0.95, 0.3, 58.99, 430.47)" style="font-size:9.77905559539795px;fill:#fff;font-family:Consolas-Bold, Consolas;font-weight:700">o</text><text transform="matrix(0.41, -0.91, 0.91, 0.41, 60.54, 425.5)" style="font-size:9.77905559539795px;fill:#fff;font-family:Consolas-Bold, Consolas;font-weight:700">u</text><text transform="matrix(0.51, -0.86, 0.86, 0.51, 62.65, 420.73)" style="font-size:9.77905559539795px;fill:#fff;font-family:Consolas-Bold, Consolas;font-weight:700">r</text><text transform="matrix(0.6, -0.8, 0.8, 0.6, 65.28, 416.26)" style="font-size:9.77905559539795px;fill:#fff;font-family:Consolas-Bold, Consolas;font-weight:700">c</text><text transform="matrix(0.69, -0.72, 0.72, 0.69, 68.4, 412.11)" style="font-size:9.77905559539795px;fill:#fff;font-family:Consolas-Bold, Consolas;font-weight:700">e</text><text transform="matrix(0.77, -0.64, 0.64, 0.77, 71.99, 408.34)" style="font-size:9.77905559539795px;fill:#fff;font-family:Consolas-Bold, Consolas;font-weight:700"> </text><text transform="matrix(0.84, -0.55, 0.55, 0.84, 75.98, 405.01)" style="font-size:9.77905559539795px;fill:#fff;font-family:Consolas-Bold, Consolas;font-weight:700">C</text><text transform="matrix(0.89, -0.45, 0.45, 0.89, 80.34, 402.15)" style="font-size:9.77905559539795px;fill:#fff;font-family:Consolas-Bold, Consolas;font-weight:700">o</text><text transform="matrix(0.94, -0.34, 0.34, 0.94, 84.98, 399.82)" style="font-size:9.77905559539795px;fill:#fff;font-family:Consolas-Bold, Consolas;font-weight:700">d</text><text transform="matrix(0.97, -0.23, 0.23, 0.97, 89.88, 398.02)" style="font-size:9.77905559539795px;fill:#fff;font-family:Consolas-Bold, Consolas;font-weight:700">e</text><text transform="translate(145.6 426.5)" style="writing-mode:tb;text-orientation:upright;glyph-orientation-vertical:0deg;font-size:9.779032707214355px;fill:#1d1d1b;font-family:MyriadPro-Regular, Myriad Pro">OCR</text><text transform="matrix(0.71, -0.7, 0.7, 0.71, 69.5, 441.4)" style="font-size:10.130026817321777px;fill:#fff;font-family:Consolas">01011111<tspan x="0" y="12.2">11001100</tspan></text><path d="M161.5,73.9a5.6,5.6,0,0,1,5.7,5.7V195.8a5.6,5.6,0,0,1-5.7,5.6H45.3a5.7,5.7,0,0,1-5.7-5.6V79.6a5.7,5.7,0,0,1,5.7-5.7H161.5m0-3H45.3a8.7,8.7,0,0,0-8.7,8.7V195.8a8.6,8.6,0,0,0,8.7,8.6H161.5a8.6,8.6,0,0,0,8.7-8.6V79.6a8.7,8.7,0,0,0-8.7-8.7Z" style="fill:#25383c"/><circle cx="103.4" cy="137.7" r="56.7" style="fill:#25383c"/><path d="M63.3,97.6a56.7,56.7,0,0,0,0,80.1l80.2-80.1A56.6,56.6,0,0,0,63.3,97.6Z" style="fill:#b82327"/><path d="M129.9,149.8a7.4,7.4,0,0,0-.8-3.8.3.3,0,0,1,0-.4c0-.2.1-.2.2-.9a6.3,6.3,0,0,0-.4-2.5,3.9,3.9,0,0,0-2-1.3l-2.7-.7-.2-.2v-2.1a1.4,1.4,0,0,0,.7-.9v-.9h0c0-.3.1-3-2.5-3a2.5,2.5,0,0,0-2.8,2.7,3.9,3.9,0,0,0,.1,1.5,3.8,3.8,0,0,0,.8,1.1v1.8c0,.1,0,.2-.1.2h-.8c-1.4.2-3.8.7-4.5,1.9s-.9,4-1.1,4.5.2,1.7.3,2.4l.5,3.3a2.9,2.9,0,0,1,.4.8c-.1.3-.1,2.5.4,2.9s1.1,2.8,1.6,2.8-.1-1.8-.1-2.1,0-.1.1-.2.1-.1.1-.2v-1.2a3.6,3.6,0,0,0-.1-1.4c-.2-.4-1-.5-.9-1.1s.4-2.8.4-3.5-.5-2.1-.5-2.1l1.2-1.6a15.8,15.8,0,0,1,.3,2.8c0,.6.7,1,.7,2.6a9,9,0,0,1-.2,2.3c-.1.9,0,2.8,0,3.2h0l-.5,2v.2c.1.4.6,2,1,3s1.8,2.3,1.8,2.5a20.7,20.7,0,0,0-.4,2.3,12,12,0,0,0,.7,2.7,8.1,8.1,0,0,1,.3,2.4c.1.7.7,2.1.8,3.2a3.3,3.3,0,0,1-.4,1.9,2.6,2.6,0,0,1-.1,1.5c-.2.4-1,2.5-.6,3.1s1.1.6,1.5.7-.4,2.8,1.3,2.9,1.6-2.2,1.4-2.9a12.1,12.1,0,0,1,.3-3.9,29.3,29.3,0,0,0,1.2-2.8c.4-.9,0-3.6,0-4.2a8.5,8.5,0,0,1,.6-1.9c.1-.3.5-2,.6-2.7s.8-3.8.9-4.6.1-3.6-.3-4.6a24.5,24.5,0,0,1-.8-5.7h0c.3,1.1,2,2.2,2.6,1.5S129.8,150.5,129.9,149.8Zm-6,20.8c-.1.6-.5,2.2-.6,2.8h-.1a10.7,10.7,0,0,1-.1-2.5c.1-.5.3-2.1.4-2.8h.1A19,19,0,0,1,123.9,170.6Z" style="fill:#b82327"/><path d="M129,150.2a4.8,4.8,0,0,0-.6-1.4,8.4,8.4,0,0,1-1.4-2.2c-.3-.7-.3-2.6-.6-3.2a7.6,7.6,0,0,0-1.5-2.1c-.2-.1-.1.2-.2.4s.5,1.5.6,1.8-.5-.6-.5-.4.3,1.2.3,1.3l.2,1.5.7,1.4c.1.3.7,2.8.8,3s.4,1.3.4,1.3Z" style="fill:#b82327"/><path d="M120,135.1h.2a4.9,4.9,0,0,0,1.6.5,4.8,4.8,0,0,0,2-.4c.4-.4.4,2.6.2,2.8s-1,1.8-1.7,1.8a3.6,3.6,0,0,1-2-1.4,14.5,14.5,0,0,1-.4-2.5A2,2,0,0,0,120,135.1Z" style="fill:#b82327"/><text transform="matrix(0.19, -0.98, 0.98, 0.19, 58.01, 131.96)" style="font-size:9.77905559539795px;fill:#25383c;font-family:Consolas-Bold, Consolas;font-weight:700">S</text><text transform="matrix(0.3, -0.95, 0.95, 0.3, 58.99, 126.87)" style="font-size:9.77905559539795px;fill:#25383c;font-family:Consolas-Bold, Consolas;font-weight:700">o</text><text transform="matrix(0.41, -0.91, 0.91, 0.41, 60.54, 121.9)" style="font-size:9.77905559539795px;fill:#25383c;font-family:Consolas-Bold, Consolas;font-weight:700">u</text><text transform="matrix(0.51, -0.86, 0.86, 0.51, 62.65, 117.14)" style="font-size:9.77905559539795px;fill:#25383c;font-family:Consolas-Bold, Consolas;font-weight:700">r</text><text transform="matrix(0.6, -0.8, 0.8, 0.6, 65.28, 112.66)" style="font-size:9.77905559539795px;fill:#25383c;font-family:Consolas-Bold, Consolas;font-weight:700">c</text><text transform="matrix(0.69, -0.72, 0.72, 0.69, 68.4, 108.51)" style="font-size:9.77905559539795px;fill:#25383c;font-family:Consolas-Bold, Consolas;font-weight:700">e</text><text transform="matrix(0.77, -0.64, 0.64, 0.77, 71.99, 104.74)" style="font-size:9.77905559539795px;fill:#25383c;font-family:Consolas-Bold, Consolas;font-weight:700"> </text><text transform="matrix(0.84, -0.55, 0.55, 0.84, 75.98, 101.41)" style="font-size:9.77905559539795px;fill:#25383c;font-family:Consolas-Bold, Consolas;font-weight:700">C</text><text transform="matrix(0.89, -0.45, 0.45, 0.89, 80.34, 98.56)" style="font-size:9.77905559539795px;fill:#25383c;font-family:Consolas-Bold, Consolas;font-weight:700">o</text><text transform="matrix(0.94, -0.34, 0.34, 0.94, 84.98, 96.22)" style="font-size:9.77905559539795px;fill:#25383c;font-family:Consolas-Bold, Consolas;font-weight:700">d</text><text transform="matrix(0.97, -0.23, 0.23, 0.97, 89.88, 94.42)" style="font-size:9.77905559539795px;fill:#25383c;font-family:Consolas-Bold, Consolas;font-weight:700">e</text><text transform="translate(145.6 122.9)" style="writing-mode:tb;text-orientation:upright;glyph-orientation-vertical:0deg;font-size:9.779032707214355px;fill:#b82327;font-family:MyriadPro-Regular, Myriad Pro">OCR</text><text transform="matrix(0.71, -0.7, 0.7, 0.71, 69.5, 137.8)" style="font-size:10.130026817321777px;fill:#25383c;font-family:Consolas">01011111<tspan x="0" y="12.2">11001100</tspan></text><path d="M161.5,221.4a5.6,5.6,0,0,1,5.7,5.6V343.3a5.6,5.6,0,0,1-5.7,5.6H45.3a5.7,5.7,0,0,1-5.7-5.6V227a5.7,5.7,0,0,1,5.7-5.6H161.5m0-3H45.3a8.6,8.6,0,0,0-8.7,8.6V343.3a8.7,8.7,0,0,0,8.7,8.6H161.5a8.7,8.7,0,0,0,8.7-8.6V227a8.6,8.6,0,0,0-8.7-8.6Z" style="fill:#25383c"/><circle cx="103.4" cy="285.1" r="56.7" style="fill:#fff"/><path d="M63.3,245.1a56.7,56.7,0,0,0,0,80.1l80.2-80.1A56.6,56.6,0,0,0,63.3,245.1Z" style="fill:gray"/><path d="M129.9,297.3a7.2,7.2,0,0,0-.8-3.8c-.1-.2-.1-.3,0-.4s.1-.2.2-1a6.1,6.1,0,0,0-.4-2.4,3.9,3.9,0,0,0-2-1.3l-2.7-.7a.2.2,0,0,1-.2-.2v-2.1a1.4,1.4,0,0,0,.7-.9v-1h0c0-.3.1-3-2.5-3a2.5,2.5,0,0,0-2.8,2.7,3.9,3.9,0,0,0,.1,1.5,6.3,6.3,0,0,0,.8,1.1v2h-.8c-1.4.2-3.8.7-4.5,1.9s-.9,4-1.1,4.5.2,1.7.3,2.4l.5,3.3a2.9,2.9,0,0,1,.4.8c-.1.2-.1,2.5.4,2.9s1.1,2.8,1.6,2.7-.1-1.7-.1-2,0-.2.1-.2.1-.1.1-.2v-1.2a3.4,3.4,0,0,0-.1-1.4c-.2-.4-1-.5-.9-1.1s.4-2.8.4-3.5-.5-2.2-.5-2.2l1.2-1.5a14.5,14.5,0,0,1,.3,2.7c0,.6.7,1.1.7,2.7a9,9,0,0,1-.2,2.3c-.1.9,0,2.8,0,3.1h0l-.5,2v.3c.1.4.6,2,1,3s1.8,2.3,1.8,2.5a17.1,17.1,0,0,0-.4,2.3,12,12,0,0,0,.7,2.7,7.8,7.8,0,0,1,.3,2.4c.1.7.7,2.1.8,3.1a3.4,3.4,0,0,1-.4,2,2.7,2.7,0,0,1-.1,1.5c-.2.4-1,2.5-.6,3.1s1.1.6,1.5.6-.4,2.9,1.3,3,1.6-2.3,1.4-3a11.7,11.7,0,0,1,.3-3.8c.4-.7,1-2.4,1.2-2.8s0-3.6,0-4.2a8.5,8.5,0,0,1,.6-1.9c.1-.3.5-2,.6-2.7s.8-3.8.9-4.6.1-3.6-.3-4.6a24.6,24.6,0,0,1-.8-5.8h0c.3,1.1,2,2.1,2.6,1.5S129.8,298,129.9,297.3Zm-6,20.7c-.1.7-.5,2.2-.6,2.9h-.1a10.7,10.7,0,0,1-.1-2.5c.1-.5.3-2.1.4-2.8h.1A19.7,19.7,0,0,1,123.9,318Z" style="fill:gray"/><path d="M129,297.7a4.8,4.8,0,0,0-.6-1.4,10.5,10.5,0,0,1-1.4-2.2c-.3-.7-.3-2.6-.6-3.2a7.6,7.6,0,0,0-1.5-2.1c-.2-.1-.1.2-.2.4s.5,1.4.6,1.8-.5-.6-.5-.4.3,1.2.3,1.3.2,1.4.2,1.5.6,1.1.7,1.4.7,2.8.8,3,.4,1.2.4,1.2Z" style="fill:gray"/><path d="M120,282.6h.2a9.8,9.8,0,0,0,1.6.5,3.7,3.7,0,0,0,2-.5c.4-.3.4,2.7.2,2.9s-1,1.7-1.7,1.7a3.5,3.5,0,0,1-2-1.3,18.7,18.7,0,0,1-.4-2.5A2,2,0,0,0,120,282.6Z" style="fill:gray"/><text transform="matrix(0.19, -0.98, 0.98, 0.19, 58.01, 279.44)" style="font-size:9.77905559539795px;fill:#fff;font-family:Consolas-Bold, Consolas;font-weight:700">S</text><text transform="matrix(0.3, -0.95, 0.95, 0.3, 58.99, 274.35)" style="font-size:9.77905559539795px;fill:#fff;font-family:Consolas-Bold, Consolas;font-weight:700">o</text><text transform="matrix(0.41, -0.91, 0.91, 0.41, 60.54, 269.38)" style="font-size:9.77905559539795px;fill:#fff;font-family:Consolas-Bold, Consolas;font-weight:700">u</text><text transform="matrix(0.51, -0.86, 0.86, 0.51, 62.65, 264.62)" style="font-size:9.77905559539795px;fill:#fff;font-family:Consolas-Bold, Consolas;font-weight:700">r</text><text transform="matrix(0.6, -0.8, 0.8, 0.6, 65.28, 260.14)" style="font-size:9.77905559539795px;fill:#fff;font-family:Consolas-Bold, Consolas;font-weight:700">c</text><text transform="matrix(0.69, -0.72, 0.72, 0.69, 68.4, 256)" style="font-size:9.77905559539795px;fill:#fff;font-family:Consolas-Bold, Consolas;font-weight:700">e</text><text transform="matrix(0.77, -0.64, 0.64, 0.77, 71.99, 252.22)" style="font-size:9.77905559539795px;fill:#fff;font-family:Consolas-Bold, Consolas;font-weight:700"> </text><text transform="matrix(0.84, -0.55, 0.55, 0.84, 75.98, 248.89)" style="font-size:9.77905559539795px;fill:#fff;font-family:Consolas-Bold, Consolas;font-weight:700">C</text><text transform="matrix(0.89, -0.45, 0.45, 0.89, 80.34, 246.04)" style="font-size:9.77905559539795px;fill:#fff;font-family:Consolas-Bold, Consolas;font-weight:700">o</text><text transform="matrix(0.94, -0.34, 0.34, 0.94, 84.98, 243.71)" style="font-size:9.77905559539795px;fill:#fff;font-family:Consolas-Bold, Consolas;font-weight:700">d</text><text transform="matrix(0.97, -0.23, 0.23, 0.97, 89.88, 241.91)" style="font-size:9.77905559539795px;fill:#fff;font-family:Consolas-Bold, Consolas;font-weight:700">e</text><text transform="translate(145.6 270.4)" style="writing-mode:tb;text-orientation:upright;glyph-orientation-vertical:0deg;font-size:9.779032707214355px;fill:gray;font-family:MyriadPro-Regular, Myriad Pro">OCR</text><text transform="matrix(0.71, -0.7, 0.7, 0.71, 69.5, 285.29)" style="font-size:10.130026817321777px;fill:#fff;font-family:Consolas">01011111<tspan x="0" y="12.2">11001100</tspan></text></svg>